<?xml version="1.0" standalone="no"?><!DOCTYPE svg PUBLIC "-//W3C//DTD SVG 1.1//EN" "http://www.w3.org/Graphics/SVG/1.1/DTD/svg11.dtd"><svg t="1535352859679" class="icon" style="" viewBox="0 0 1024 1024" version="1.1" xmlns="http://www.w3.org/2000/svg" p-id="3359" xmlns:xlink="http://www.w3.org/1999/xlink" width="32" height="32"><defs><style type="text/css"></style></defs><path d="M515 67.8c-243 0-440 197-440 440s197 440 440 440 440-197 440-440-197-440-440-440z m198 580.8c17.2 17.2 17.2 45 0 62.2-17.2 17.2-45 17.2-62.2 0L515 575 379.3 710.8c-17.2 17.2-45 17.2-62.2 0-17.2-17.2-17.2-45 0-62.2l135.8-135.8L317 377c-17.2-17.2-17.2-45 0-62.2 17.2-17.2 45-17.2 62.2 0L515 450.6l135.8-135.8c17.2-17.2 45-17.2 62.2 0 17.2 17.2 17.2 45 0 62.2L577.3 512.8 713 648.6z" p-id="3360" fill="#e66e3d"></path></svg>